<svg xmlns="http://www.w3.org/2000/svg" width="21" height="21" viewBox="-10 -10 276 276">
	<circle cx="128" cy="128" r="64" fill="#fff"/>
	<path fill="#229342" d="M96 183a64 64 0 0 1-23-23L17 64a128 128 0 0 0 111 192l55-96a64 64 0 0 1-87 23Z"/>
	<path fill="#FBC116" d="M192 128a64 64 0 0 1-9 32l-55 96A128 128 0 0 0 239 64H128a64 64 0 0 1 64 64Z"/>
	<circle cx="128" cy="128" r="52" fill="#1a73e8"/>
	<path fill="#E33B2E" d="M96 73a64 64 0 0 1 32-9h111a128 128 0 0 0-222 0l56 96a64 64 0 0 1 23-87Z"/>
</svg>
