<svg xmlns="http://www.w3.org/2000/svg" width="21" height="21">
	<path fill="#fff" d="M10.2 15.3a5.1 5.1 0 1 0 0-10.2 5.1 5.1 0 0 0 0 10.2Z"/>
	<path fill="#229342" d="M5.783 12.75 1.367 5.103A10.198 10.198 0 0 0 10.201 20.4l4.416-7.65a5.098 5.098 0 0 1-8.834.001Z"/>
	<path fill="#FBC116" d="M14.617 12.75 10.2 20.4a10.199 10.199 0 0 0 8.831-15.3H10.2a5.1 5.1 0 0 1 4.418 7.65Z"/>
	<path fill="#229342" d="M10.2 14.238a4.038 4.038 0 1 0 0-8.075 4.038 4.038 0 0 0 0 8.075Z"/>
	<path fill="#E33B2E" d="M10.2 5.1h8.833a10.198 10.198 0 0 0-17.666.002l4.416 7.649h.002a5.1 5.1 0 0 1 4.415-7.65Z"/>
</svg>
