<svg xmlns="http://www.w3.org/2000/svg" width="21" height="21">
	<path fill="url(#b)" d="M18.416 15.18a7.485 7.485 0 0 1-.845.375 8.121 8.121 0 0 1-2.86.51c-3.77 0-7.053-2.59-7.053-5.92a2.51 2.51 0 0 1 1.307-2.176c-3.41.143-4.287 3.697-4.287 5.777 0 5.897 5.427 6.487 6.598 6.487.63 0 1.578-.184 2.152-.367l.103-.032a10.224 10.224 0 0 0 5.307-4.207.319.319 0 0 0-.422-.447Z"/>
	<path fill="url(#c)" d="M18.416 15.18a7.485 7.485 0 0 1-.845.375 8.121 8.121 0 0 1-2.86.51c-3.77 0-7.053-2.59-7.053-5.92a2.51 2.51 0 0 1 1.307-2.176c-3.41.143-4.287 3.697-4.287 5.777 0 5.897 5.427 6.487 6.598 6.487.63 0 1.578-.184 2.152-.367l.103-.032a10.224 10.224 0 0 0 5.307-4.207.319.319 0 0 0-.422-.447Z" opacity=".35"/>
	<path fill="url(#d)" d="M8.423 19.229a6.31 6.31 0 0 1-1.809-1.698A6.43 6.43 0 0 1 8.965 7.97c.255-.12.677-.327 1.243-.319a2.582 2.582 0 0 1 2.048 1.036c.32.431.497.953.502 1.49 0-.016 1.953-6.343-6.375-6.343-3.498 0-6.375 3.315-6.375 6.232-.014 1.54.316 3.065.964 4.462a10.2 10.2 0 0 0 12.464 5.34 6.015 6.015 0 0 1-5.005-.638h-.008Z"/>
	<path fill="url(#e)" d="M8.423 19.229a6.31 6.31 0 0 1-1.809-1.698A6.43 6.43 0 0 1 8.965 7.97c.255-.12.677-.327 1.243-.319a2.582 2.582 0 0 1 2.048 1.036c.32.431.497.953.502 1.49 0-.016 1.953-6.343-6.375-6.343-3.498 0-6.375 3.315-6.375 6.232-.014 1.54.316 3.065.964 4.462a10.2 10.2 0 0 0 12.464 5.34 6.015 6.015 0 0 1-5.005-.638h-.008Z" opacity=".41"/>
	<path fill="url(#f)" d="M12.145 11.857c-.072.08-.271.2-.271.447 0 .207.135.414.382.582 1.14.796 3.3.685 3.307.685a4.75 4.75 0 0 0 2.415-.662A4.893 4.893 0 0 0 20.4 8.694c.024-1.785-.637-2.972-.9-3.498C17.802 1.896 14.16 0 10.2 0A10.2 10.2 0 0 0 0 10.057c.04-2.909 2.933-5.26 6.375-5.26.28 0 1.873.024 3.347.797a5.786 5.786 0 0 1 2.463 2.335c.486.845.573 1.92.573 2.35 0 .431-.215 1.06-.621 1.587l.008-.008Z"/>
	<path fill="url(#g)" d="M12.145 11.857c-.072.08-.271.2-.271.447 0 .207.135.414.382.582 1.14.796 3.3.685 3.307.685a4.75 4.75 0 0 0 2.415-.662A4.893 4.893 0 0 0 20.4 8.694c.024-1.785-.637-2.972-.9-3.498C17.802 1.896 14.16 0 10.2 0A10.2 10.2 0 0 0 0 10.057c.04-2.909 2.933-5.26 6.375-5.26.28 0 1.873.024 3.347.797a5.786 5.786 0 0 1 2.463 2.335c.486.845.573 1.92.573 2.35 0 .431-.215 1.06-.621 1.587l.008-.008Z"/>
	<defs>
		<radialGradient id="c" cx="0" cy="0" r="1" gradientTransform="matrix(7.6 0 0 7.2 12.527 14.212)" gradientUnits="userSpaceOnUse">
			<stop offset=".7" stop-opacity="0"/>
			<stop offset=".9" stop-opacity=".5"/>
			<stop offset="1"/>
		</radialGradient>
		<radialGradient id="e" cx="0" cy="0" r="1" gradientTransform="matrix(1.7 -11.3 9.1 1.4 5.623 15.854)" gradientUnits="userSpaceOnUse">
			<stop offset=".8" stop-opacity="0"/>
			<stop offset=".9" stop-opacity=".5"/>
			<stop offset="1"/>
		</radialGradient>
		<radialGradient id="f" cx="0" cy="0" r="1" gradientTransform="matrix(-.6 16.1 -34.4 -1.4 2.063 3.77)" gradientUnits="userSpaceOnUse">
			<stop stop-color="#35C1F1"/>
			<stop offset=".1" stop-color="#34C1ED"/>
			<stop offset=".2" stop-color="#2FC2DF"/>
			<stop offset=".3" stop-color="#2BC3D2"/>
			<stop offset=".7" stop-color="#36C752"/>
		</radialGradient>
		<radialGradient id="g" cx="0" cy="0" r="1" gradientTransform="matrix(2.2 7.4 -6 1.8 19.13 6.16)" gradientUnits="userSpaceOnUse">
			<stop stop-color="#66EB6E"/>
			<stop offset="1" stop-color="#66EB6E" stop-opacity="0"/>
		</radialGradient>
		<linearGradient id="b" x1="4.678" x2="18.894" y1="14.105" y2="14.105" gradientUnits="userSpaceOnUse">
			<stop stop-color="#0C59A4"/>
			<stop offset="1" stop-color="#114A8B"/>
		</linearGradient>
		<linearGradient id="d" x1="12.168" x2="3.299" y1="7.937" y2="17.603" gradientUnits="userSpaceOnUse">
			<stop stop-color="#1B9DE2"/>
			<stop offset=".2" stop-color="#1595DF"/>
			<stop offset=".7" stop-color="#0680D7"/>
			<stop offset="1" stop-color="#0078D4"/>
		</linearGradient>
	</defs>
</svg>
