<svg xmlns="http://www.w3.org/2000/svg" width="21" height="21">
	<path fill="#000" d="M19.505 10.524a8.76 8.76 0 0 1-.708 3.448 8.995 8.995 0 0 1-2.017 2.922 9.33 9.33 0 0 1-3.019 1.953 9.568 9.568 0 0 1-7.12 0 9.33 9.33 0 0 1-3.019-1.953 8.995 8.995 0 0 1-2.017-2.922 8.761 8.761 0 0 1-.708-3.448c0-2.39.98-4.68 2.725-6.37a9.461 9.461 0 0 1 6.58-2.638 9.57 9.57 0 0 1 3.56.685 9.33 9.33 0 0 1 3.018 1.953 8.995 8.995 0 0 1 2.017 2.923 8.76 8.76 0 0 1 .708 3.447Z" opacity=".53"/>
	<path fill="url(#b)" stroke="#CDCDCD" stroke-linecap="round" stroke-linejoin="round" stroke-width=".352" d="M19.859 9.729c0 1.275-.25 2.538-.736 3.716a9.712 9.712 0 0 1-2.093 3.15 9.655 9.655 0 0 1-3.134 2.106 9.612 9.612 0 0 1-10.525-2.105A9.738 9.738 0 0 1 .542 9.729a9.738 9.738 0 0 1 2.83-6.867A9.612 9.612 0 0 1 13.896.757a9.654 9.654 0 0 1 3.133 2.105 9.713 9.713 0 0 1 2.093 3.15 9.757 9.757 0 0 1 .736 3.717Z"/>
	<path fill="url(#c)" d="M19.102 9.729a8.98 8.98 0 0 1-2.607 6.329 8.877 8.877 0 0 1-6.294 2.62 8.877 8.877 0 0 1-6.295-2.62A8.975 8.975 0 0 1 1.3 9.728c0-2.373.938-4.65 2.607-6.328A8.877 8.877 0 0 1 10.201.778c2.36 0 4.624.943 6.294 2.622a8.975 8.975 0 0 1 2.607 6.329Z"/>
	<path fill="#F4F2F3" d="M10.2 1.245a.13.13 0 0 0-.13.13v1.506a.13.13 0 1 0 .26 0V1.376a.13.13 0 0 0-.13-.13Zm-.849.054h-.026a.13.13 0 0 0-.116.144l.066.63a.13.13 0 1 0 .258-.028l-.065-.63A.13.13 0 0 0 9.35 1.3Zm1.704 0a.13.13 0 0 0-.116.117l-.066.63a.13.13 0 1 0 .258.027l.066-.63a.13.13 0 0 0-.142-.143Zm-2.576.127-.026.003a.13.13 0 0 0-.1.155l.31 1.472a.13.13 0 1 0 .254-.054l-.31-1.472a.13.13 0 0 0-.128-.104Zm3.448.002a.13.13 0 0 0-.127.103l-.311 1.472a.13.13 0 0 0 .1.155.13.13 0 0 0 .153-.1l.312-1.473a.13.13 0 0 0-.127-.157Zm-4.28.234a.13.13 0 0 0-.135.17l.195.603a.13.13 0 0 0 .163.084.13.13 0 0 0 .084-.165l-.195-.602a.13.13 0 0 0-.112-.09Zm5.108 0a.13.13 0 0 0-.112.09l-.195.603a.13.13 0 0 0 .083.164.13.13 0 0 0 .164-.084l.195-.602a.13.13 0 0 0-.135-.17Zm-5.931.303a.13.13 0 0 0-.116.184l.608 1.375a.13.13 0 0 0 .17.066.13.13 0 0 0 .067-.172l-.608-1.375a.13.13 0 0 0-.121-.078Zm6.763.005a.13.13 0 0 0-.12.077l-.61 1.375a.13.13 0 0 0 .065.172.13.13 0 0 0 .172-.066l.61-1.374a.13.13 0 0 0-.117-.184Zm-7.527.402a.13.13 0 0 0-.121.196l.314.548a.13.13 0 0 0 .178.047.13.13 0 0 0 .047-.178l-.315-.548a.13.13 0 0 0-.103-.065Zm8.28 0a.13.13 0 0 0-.102.065l-.315.548a.13.13 0 0 0 .047.178.129.129 0 0 0 .178-.048l.314-.548a.13.13 0 0 0-.121-.195Zm-9.022.465a.13.13 0 0 0-.1.207l.878 1.218a.13.13 0 0 0 .182.03.13.13 0 0 0 .029-.183l-.88-1.218a.13.13 0 0 0-.109-.054Zm9.774.007a.13.13 0 0 0-.11.053l-.88 1.217a.13.13 0 0 0 .028.183.13.13 0 0 0 .182-.029l.88-1.217a.13.13 0 0 0-.1-.207Zm-10.437.552a.13.13 0 0 0-.103.218l.421.47c.048.054.13.058.183.01a.13.13 0 0 0 .01-.184l-.421-.47a.13.13 0 0 0-.09-.044Zm11.092.001a.13.13 0 0 0-.09.043l-.421.47a.13.13 0 0 0 .01.185.129.129 0 0 0 .183-.01l.421-.47a.13.13 0 0 0-.103-.218ZM4.019 4.01a.13.13 0 0 0-.08.227l1.113 1.007a.129.129 0 0 0 .183-.01.13.13 0 0 0-.01-.184L4.114 4.043a.129.129 0 0 0-.094-.033Zm12.366.004a.129.129 0 0 0-.093.034l-1.114 1.006a.13.13 0 0 0-.01.184.13.13 0 0 0 .184.01l1.113-1.006a.13.13 0 0 0-.08-.228Zm-12.894.68a.13.13 0 0 0-.08.236l.509.371c.058.043.139.03.18-.028a.13.13 0 0 0-.028-.183l-.51-.372a.13.13 0 0 0-.071-.025Zm13.422.004a.13.13 0 0 0-.071.025l-.51.372a.13.13 0 0 0-.029.182.13.13 0 0 0 .181.029l.51-.372a.13.13 0 0 0-.08-.236Zm-13.916.724a.13.13 0 0 0-.056.243l1.297.753a.13.13 0 0 0 .13-.226L3.07 5.439a.13.13 0 0 0-.074-.017Zm14.407 0a.128.128 0 0 0-.074.017l-1.296.753a.13.13 0 0 0 .13.226l1.296-.753a.13.13 0 0 0-.056-.243ZM2.624 6.2a.13.13 0 0 0-.055.25l.574.258a.13.13 0 0 0 .106-.238l-.575-.259a.129.129 0 0 0-.05-.011Zm15.156.005a.13.13 0 0 0-.05.012l-.576.257a.13.13 0 0 0 .106.239l.575-.258a.13.13 0 0 0-.055-.25Zm-15.49.807a.13.13 0 0 0-.03.254l1.425.466a.13.13 0 0 0 .08-.248l-1.423-.466a.13.13 0 0 0-.051-.006Zm15.822.006a.125.125 0 0 0-.051.006l-1.424.465a.13.13 0 0 0 .08.248l1.424-.465a.13.13 0 0 0-.03-.254Zm-16.029.846a.13.13 0 0 0-.127.104.13.13 0 0 0 .1.155l.616.131a.13.13 0 0 0 .153-.1.13.13 0 0 0-.1-.155l-.615-.132a.127.127 0 0 0-.027-.003Zm16.235.002a.159.159 0 0 0-.027.002L17.677 8a.13.13 0 0 0-.1.155.13.13 0 0 0 .154.1l.615-.131a.13.13 0 0 0 .1-.155.13.13 0 0 0-.127-.103ZM1.926 8.72a.13.13 0 0 0-.116.116.13.13 0 0 0 .116.143l1.488.159a.13.13 0 0 0 .143-.116.13.13 0 0 0-.116-.144L1.953 8.72h-.027Zm16.55.011h-.027l-1.489.156a.13.13 0 0 0-.115.144.13.13 0 0 0 .143.116l1.488-.156a.13.13 0 0 0 .116-.144.13.13 0 0 0-.116-.116ZM1.9 9.598a.13.13 0 0 0-.13.13.13.13 0 0 0 .13.131h.63a.13.13 0 0 0 .13-.13.13.13 0 0 0-.13-.13H1.9Zm15.969 0a.13.13 0 0 0-.13.13.13.13 0 0 0 .13.131h.63a.13.13 0 0 0 .13-.13.13.13 0 0 0-.13-.13h-.63Zm-14.43.712h-.027l-1.488.156a.13.13 0 0 0-.116.144.13.13 0 0 0 .142.116l1.49-.157a.13.13 0 0 0 .115-.143.13.13 0 0 0-.116-.116Zm13.52.01a.13.13 0 0 0-.116.115.13.13 0 0 0 .115.144l1.489.158a.13.13 0 0 0 .143-.116.13.13 0 0 0-.116-.144l-1.488-.158a.123.123 0 0 0-.027 0Zm-14.262.88a.13.13 0 0 0-.027.003l-.616.132a.13.13 0 0 0-.1.155.13.13 0 0 0 .154.1l.616-.131a.13.13 0 0 0 .1-.155.13.13 0 0 0-.127-.103Zm15.005.002a.13.13 0 0 0-.128.103.13.13 0 0 0 .1.155l.616.132a.13.13 0 0 0 .054-.255l-.616-.132a.131.131 0 0 0-.026-.003Zm-13.968.514a.126.126 0 0 0-.051.006l-1.424.465a.13.13 0 0 0 .08.248l1.424-.465a.13.13 0 0 0-.03-.254Zm12.93.004a.13.13 0 0 0-.03.254l1.424.467a.13.13 0 0 0 .08-.248l-1.423-.466a.129.129 0 0 0-.051-.007ZM3.192 12.735a.13.13 0 0 0-.05.011l-.576.258a.13.13 0 0 0 .105.238l.576-.257a.13.13 0 0 0-.055-.25Zm14.015.005a.13.13 0 0 0-.055.25l.575.258a.13.13 0 0 0 .106-.238l-.575-.259a.128.128 0 0 0-.05-.011Zm-12.895.283a.127.127 0 0 0-.074.017l-1.297.753a.13.13 0 0 0 .13.226l1.296-.753a.13.13 0 0 0-.055-.243Zm11.777 0a.13.13 0 0 0-.056.243l1.297.753a.13.13 0 0 0 .177-.048.13.13 0 0 0-.047-.178l-1.297-.753a.128.128 0 0 0-.074-.017Zm-12.1 1.104a.13.13 0 0 0-.073.025l-.51.372a.13.13 0 0 0-.028.182.129.129 0 0 0 .181.03l.51-.373a.13.13 0 0 0-.08-.236Zm12.42.005a.13.13 0 0 0-.08.236l.51.372c.057.042.138.03.18-.03a.13.13 0 0 0-.028-.181l-.51-.373a.13.13 0 0 0-.072-.024Zm-11.267.045a.13.13 0 0 0-.093.033l-1.113 1.006a.13.13 0 0 0-.01.184c.048.054.13.059.183.01l1.113-1.006a.13.13 0 0 0-.08-.227Zm10.113.003a.13.13 0 0 0-.08.227l1.113 1.008a.13.13 0 0 0 .183-.01.13.13 0 0 0-.01-.184l-1.112-1.007a.13.13 0 0 0-.094-.034Zm-9.056.956a.129.129 0 0 0-.11.054l-.88 1.217a.13.13 0 0 0 .028.182c.058.043.139.03.181-.028l.88-1.218a.13.13 0 0 0-.1-.207Zm7.996.006a.13.13 0 0 0-.1.207l.878 1.218a.129.129 0 0 0 .181.029.13.13 0 0 0 .03-.182l-.88-1.219a.13.13 0 0 0-.109-.053Zm-9.133.188a.13.13 0 0 0-.09.043l-.421.47a.13.13 0 0 0 .01.184.129.129 0 0 0 .183-.01l.421-.47a.13.13 0 0 0-.103-.218Zm10.276 0a.13.13 0 0 0-.103.218l.421.47c.048.054.13.058.183.01a.13.13 0 0 0 .01-.184l-.421-.47a.13.13 0 0 0-.09-.044Zm-7.91.522a.13.13 0 0 0-.12.078l-.61 1.374a.13.13 0 0 0 .065.172.13.13 0 0 0 .171-.066l.61-1.374a.13.13 0 0 0-.116-.184Zm5.536.004a.13.13 0 0 0-.116.184l.608 1.375a.13.13 0 0 0 .171.066.13.13 0 0 0 .066-.172l-.608-1.376a.13.13 0 0 0-.12-.077Zm-6.607.421a.13.13 0 0 0-.104.065l-.315.549a.13.13 0 0 0 .048.178.13.13 0 0 0 .177-.048l.315-.548a.13.13 0 0 0-.121-.196Zm7.687 0a.13.13 0 0 0-.121.195l.315.549a.13.13 0 0 0 .177.048.13.13 0 0 0 .047-.178l-.314-.549a.13.13 0 0 0-.104-.065Zm-5.258.02a.13.13 0 0 0-.128.103l-.31 1.473a.13.13 0 1 0 .253.054l.311-1.473a.13.13 0 0 0-.126-.157Zm2.824 0-.026.003a.13.13 0 0 0-.1.155l.31 1.473a.13.13 0 0 0 .154.1.13.13 0 0 0 .1-.154l-.31-1.473a.13.13 0 0 0-.128-.103Zm-1.41.15a.13.13 0 0 0-.13.13v1.505a.13.13 0 1 0 .26 0v-1.505a.13.13 0 0 0-.13-.13Zm-2.382.486a.13.13 0 0 0-.112.09l-.195.602a.13.13 0 0 0 .084.164.13.13 0 0 0 .163-.084l.195-.602a.13.13 0 0 0-.135-.17Zm4.764 0a.13.13 0 0 0-.135.17l.195.602a.13.13 0 0 0 .163.084.13.13 0 0 0 .084-.164l-.195-.602a.13.13 0 0 0-.112-.09Zm-3.196.335a.13.13 0 0 0-.117.116l-.065.63a.13.13 0 1 0 .258.027l.066-.63a.13.13 0 0 0-.142-.143Zm1.624 0a.13.13 0 0 0-.142.143l.065.631a.13.13 0 1 0 .258-.027l-.065-.63a.13.13 0 0 0-.116-.116Z"/>
	<g filter="url(#d)" opacity=".409">
		<path fill="#000" d="m16.283 4.51-7.1 4.147-4.49 7.107 6.568-4.892 5.022-6.363Z"/>
	</g>
	<path fill="#FF5150" d="M11.218 10.8 9.183 8.657l7.22-4.883-5.185 7.026Z"/>
	<path fill="#F1F1F1" d="M11.218 10.8 9.183 8.657l-5.184 7.027 7.22-4.884Z"/>
	<path fill="#000" d="m3.999 15.684 7.22-4.884 5.184-7.026-12.404 11.91Z" opacity=".243"/>
	<defs>
		<radialGradient id="c" cx="0" cy="0" r="1" gradientTransform="matrix(10 0 0 10 10.24 8.424)" gradientUnits="userSpaceOnUse">
			<stop stop-color="#06C2E7"/>
			<stop offset=".25" stop-color="#0DB8EC"/>
			<stop offset=".5" stop-color="#12AEF1"/>
			<stop offset=".75" stop-color="#1F86F9"/>
			<stop offset="1" stop-color="#107DDD"/>
		</radialGradient>
		<linearGradient id="b" x1="10.2" x2="10.2" y1="19.44" y2=".018" gradientUnits="userSpaceOnUse">
			<stop stop-color="#BDBDBD"/>
			<stop offset="1" stop-color="#fff"/>
		</linearGradient>
		<filter id="d" width="16.679" height="16.344" x="2.149" y="1.964" color-interpolation-filters="sRGB" filterUnits="userSpaceOnUse">
			<feFlood flood-opacity="0" result="BackgroundImageFix"/>
			<feBlend in="SourceGraphic" in2="BackgroundImageFix" result="shape"/>
			<feGaussianBlur result="effect1_foregroundBlur_1510_9490" stdDeviation="1.272"/>
		</filter>
	</defs>
</svg>
