<svg xmlns="http://www.w3.org/2000/svg" viewBox="0 -5 317 62">
	<path fill="url(#a)" fill-rule="evenodd" d="M7.2.4A7.2 7.2 0 0 0 0 7.6v36.8a7.2 7.2 0 0 0 7.2 7.2H44a7.2 7.2 0 0 0 7.2-7.2V7.6A7.2 7.2 0 0 0 44 .4H7.2Zm12.9 20.1a2.4 2.4 0 0 0-3.4-3.4l-7.2 7.2a2.4 2.4 0 0 0 0 3.4l7.2 7.2a2.4 2.4 0 0 0 3.4-3.4L14.6 26l5.5-5.5Zm14.4-3.4a2.4 2.4 0 1 0-3.4 3.4l5.5 5.5-5.5 5.5a2.4 2.4 0 1 0 3.4 3.4l7.2-7.2a2.4 2.4 0 0 0 0-3.4l-7.2-7.2Z" clip-rule="evenodd"/>
	<path fill="#A700C3" d="M67.8 38.84h2.08l8.88-25.76h4.56l8.88 25.76h2.08V41H83.84v-2.16h3.44l-2.24-6.68H74.92l-2.24 6.68h3.44V41H67.8v-2.16Zm7.76-8.96h8.84l-4.32-13.04h-.2l-4.32 13.04Zm29.61 11.6a6.18 6.18 0 0 1-3.31-.8 4.02 4.02 0 0 1-1.69-1.76h-.16V41h-3.03v-6.2H100v.72c0 1.12.35 2 1.05 2.64.69.64 1.8.96 3.36.96 2.88 0 4.31-1.01 4.31-3.04 0-1.57-1.04-2.61-3.12-3.12l-2.16-.52c-2.13-.5-3.71-1.28-4.75-2.32a5.78 5.78 0 0 1-1.56-4.28 5.5 5.5 0 0 1 1.96-4.52c1.3-1.07 3.04-1.6 5.2-1.6 1.33 0 2.4.23 3.2.68.8.45 1.31 1 1.56 1.64h.16V20.2h3.03v6.2h-3.03v-1.16c0-2.1-1.43-3.16-4.28-3.16a4.8 4.8 0 0 0-2.84.72c-.64.45-.96 1.15-.96 2.08 0 1.65 1.06 2.75 3.2 3.28l2.03.48c2.16.48 3.78 1.21 4.84 2.2 1.07.96 1.6 2.39 1.6 4.28 0 1.92-.69 3.47-2.08 4.64-1.36 1.15-3.2 1.72-5.56 1.72Zm17.5-.16c-1.53 0-2.6-.32-3.2-.96-.62-.64-.92-1.65-.92-3.04v-14.8h-2.72V20.2h.67c1 0 1.67-.17 2.05-.52.37-.35.67-.85.92-1.52l1.23-3.52h2.33v5.56h5v2.32h-5v16.2h5v1.76c-.46.21-1.2.4-2.2.56a17 17 0 0 1-3.16.28Zm8.05-2.48h2.72V23.4l-2.72-.52v-1.76l7.08-1.4v3.72h.2a5.98 5.98 0 0 1 1.72-2.56c.42-.35.9-.63 1.44-.84a5.24 5.24 0 0 1 1.88-.32c1.22 0 2.2.3 2.92.92.74.61 1.12 1.5 1.12 2.64 0 .9-.24 1.63-.72 2.16a2.4 2.4 0 0 1-1.88.76c-.83 0-1.48-.21-1.96-.64a2.28 2.28 0 0 1-.68-1.68c0-.45.1-.83.28-1.12.18-.32.41-.5.68-.56v-.12a.89.89 0 0 0-.28-.04 3.23 3.23 0 0 0-2 .36 5.4 5.4 0 0 0-2.24 2.44 3.5 3.5 0 0 0-.36 1.52v12.48h3.52V41h-10.72v-2.16Zm28.23.28c1.68 0 2.9-.52 3.68-1.56a6.65 6.65 0 0 0 1.2-4.16v-5.6c0-1.73-.4-3.12-1.2-4.16-.77-1.04-2-1.56-3.68-1.56-1.68 0-2.92.52-3.72 1.56a6.81 6.81 0 0 0-1.16 4.16v5.6c0 1.73.39 3.12 1.16 4.16.8 1.04 2.04 1.56 3.72 1.56Zm0 2.36c-1.46 0-2.8-.25-4-.76a8.71 8.71 0 0 1-3.08-2.16 9.98 9.98 0 0 1-2-3.4 14.38 14.38 0 0 1-.68-4.56 14 14 0 0 1 .68-4.52 9.92 9.92 0 0 1 2-3.44 8.71 8.71 0 0 1 3.08-2.16c1.2-.5 2.54-.76 4-.76 1.47 0 2.8.25 4 .76a8.7 8.7 0 0 1 5.04 5.6c.48 1.33.72 2.84.72 4.52 0 1.68-.24 3.2-.72 4.56a9.48 9.48 0 0 1-1.96 3.4 8.7 8.7 0 0 1-3.08 2.16c-1.2.5-2.53.76-4 .76Zm22.71-2.64h2.92v-23.6h-2.92v-2.16h21.36v7.04h-3.64v-4.68h-10.04v9.92h6.8v-2.84h2.64v8.04h-2.64v-2.84h-6.8v10.92h10.44v-5.2h3.64V41h-21.76v-2.16Zm25.78 0h2.72V23.4l-2.72-.52v-1.76l7.08-1.4v3.72h.2a5.6 5.6 0 0 1 1.92-2.56 6.19 6.19 0 0 1 1.68-.84 6.95 6.95 0 0 1 2.2-.32c1.78 0 3.18.33 4.2 1a5.01 5.01 0 0 1 2.16 3h.12a6.66 6.66 0 0 1 6.24-4c2.48 0 4.24.65 5.28 1.96 1.04 1.28 1.56 3.21 1.56 5.8v11.36h2.72V41h-9.76v-2.16h2.56V27.72c0-1.73-.34-3-1-3.8-.64-.8-1.64-1.2-3-1.2a5.14 5.14 0 0 0-2.92.92 3.46 3.46 0 0 0-1.32 2.8v12.4h2.56V41h-9.6v-2.16h2.56V27.72c0-1.73-.34-3-1-3.8-.64-.8-1.64-1.2-3-1.2a5.14 5.14 0 0 0-2.92.92 3.46 3.46 0 0 0-1.32 2.8v12.4h2.56V41h-9.76v-2.16Zm50.68 2.64a6.76 6.76 0 0 1-4-1.08 6.3 6.3 0 0 1-2.12-2.52h-.2L249.56 41h-1.96V14.28l-2.72-.52V12l7.2-1.4v12.72h.2a6.1 6.1 0 0 1 5.84-3.6 7.8 7.8 0 0 1 3.48.76 7 7 0 0 1 2.64 2.12c.72.93 1.28 2.08 1.68 3.44.4 1.33.6 2.85.6 4.56 0 1.7-.2 3.24-.6 4.6a10.4 10.4 0 0 1-1.68 3.4 7.38 7.38 0 0 1-2.64 2.16 8.2 8.2 0 0 1-3.48.72Zm-1.4-2.88a4.6 4.6 0 0 0 3.64-1.56c.9-1.04 1.36-2.48 1.36-4.32v-4.24c0-1.84-.46-3.28-1.36-4.32a4.59 4.59 0 0 0-3.64-1.56 5.52 5.52 0 0 0-3.24 1.04c-.43.35-.78.76-1.04 1.24a3.62 3.62 0 0 0-.36 1.64v8.16c0 .61.12 1.16.36 1.64a4 4 0 0 0 1.04 1.24c.45.35.94.61 1.48.8.56.16 1.14.24 1.76.24Zm23.36 2.88c-1.54 0-2.92-.25-4.12-.76a8.52 8.52 0 0 1-3.04-2.24 10.3 10.3 0 0 1-1.92-3.44 14.54 14.54 0 0 1-.64-4.44c0-1.65.23-3.15.68-4.48a10.36 10.36 0 0 1 1.96-3.4 8.67 8.67 0 0 1 3-2.2 9.17 9.17 0 0 1 3.84-.8c1.42 0 2.68.24 3.8.72a7.64 7.64 0 0 1 2.84 1.96c.8.85 1.42 1.88 1.84 3.08.43 1.2.64 2.53.64 4v1.08H275.2v1.28c0 2.08.52 3.7 1.56 4.84a5.45 5.45 0 0 0 4.2 1.68c1.55 0 2.8-.33 3.72-1a6.3 6.3 0 0 0 2.12-2.56l1.72 1.04c-.24.7-.6 1.37-1.08 2.04a7.8 7.8 0 0 1-1.72 1.8 9.3 9.3 0 0 1-2.44 1.32c-.93.32-2 .48-3.2.48Zm-4.88-13.04h9.12V28c0-1.92-.37-3.4-1.12-4.44-.72-1.07-1.84-1.6-3.36-1.6-1.49 0-2.64.52-3.44 1.56-.8 1.01-1.2 2.48-1.2 4.4v.52Zm25.95 13.04a8.2 8.2 0 0 1-3.48-.72 7.38 7.38 0 0 1-2.64-2.16 10.4 10.4 0 0 1-1.68-3.4c-.4-1.36-.6-2.9-.6-4.6 0-1.7.2-3.23.6-4.56.4-1.36.96-2.5 1.68-3.44a7 7 0 0 1 2.64-2.12c1.04-.5 2.2-.76 3.48-.76a6 6 0 0 1 5.84 3.6h.2v-9.04l-2.72-.52V12l7.2-1.4v27.2l2.72.52v1.76l-7.2 1.4v-3.6h-.2a6.1 6.1 0 0 1-5.84 3.6Zm1.4-2.88a4.66 4.66 0 0 0 3.2-1.04 3.55 3.55 0 0 0 1.44-2.88v-8.16a3.55 3.55 0 0 0-1.44-2.88 5.4 5.4 0 0 0-3.2-1.04 4.6 4.6 0 0 0-3.64 1.56c-.9 1.04-1.36 2.48-1.36 4.32v4.24c0 1.84.45 3.28 1.36 4.32a4.59 4.59 0 0 0 3.64 1.56Z"/>
	<defs>
		<linearGradient id="a" x1="15.14" x2="36.06" y1=".97" y2="51.03" gradientUnits="userSpaceOnUse">
			<stop stop-color="#50005D"/>
			<stop offset="1" stop-color="#A700C3"/>
		</linearGradient>
	</defs>
</svg>
